<?xml version="1.0" encoding="utf-8"?>
<!-- Generator: Adobe Illustrator 16.0.0, SVG Export Plug-In . SVG Version: 6.00 Build 0)  -->
<!DOCTYPE svg PUBLIC "-//W3C//DTD SVG 1.1//EN" "http://www.w3.org/Graphics/SVG/1.1/DTD/svg11.dtd">
<svg version="1.1" id="Layer_1" xmlns="http://www.w3.org/2000/svg" xmlns:xlink="http://www.w3.org/1999/xlink" x="0px" y="0px"
	 width="233px" height="68.148px" viewBox="0 0 233 68.148" enable-background="new 0 0 233 68.148" xml:space="preserve">
<g>
	<path fill-rule="evenodd" clip-rule="evenodd" fill="#0095DA" d="M211.621,5.779c3.587-1.887,9.939,1.834,14.474,8.581
		c4.693,6.987,5.659,14.577,2.157,16.95c-1.558,1.054-3.737,0.899-6.09-0.211c3.188,1.729,6.183,2.089,8.266,0.678
		c4.278-2.897,3.099-12.167-2.635-20.7C222.845,3.712,216.121-0.7,211.621,0.091V5.779L211.621,5.779z M211.621,20.526v-0.594
		c0.518,1.007,1.112,2.02,1.784,3.02c0.498,0.741,1.019,1.445,1.554,2.109c-0.925-1.07-1.819-2.238-2.662-3.491
		C212.064,21.223,211.838,20.875,211.621,20.526z M209.663,0.87c-2.137,1.447-2.912,4.483-2.438,8.223
		c0.684,0.072,1.37,0.258,2.022,0.505c0.242-1.592,0.901-2.851,2-3.596c0.121-0.082,0.246-0.156,0.374-0.223V0.091
		C210.907,0.217,210.249,0.473,209.663,0.87L209.663,0.87z M211.621,19.932v0.594c-1.458-2.333-2.576-4.7-3.337-6.957
		c0.394,0.075,0.784,0.193,1.159,0.336C209.822,15.795,210.554,17.854,211.621,19.932z"/>
	<path fill-rule="evenodd" clip-rule="evenodd" fill="#0095DA" d="M206.209,13.471c2.771-0.978,7.291,1.811,10.562,6.677
		c3.557,5.294,4.288,11.045,1.634,12.843c-1.18,0.799-2.831,0.682-4.613-0.16c2.415,1.309,4.685,1.583,6.264,0.514
		c3.24-2.196,2.347-9.219-1.997-15.684c-3.604-5.363-8.45-8.66-11.849-8.375V13.471L206.209,13.471z M206.209,25.45v-0.327
		c0.289,0.514,0.605,1.027,0.947,1.536c0.377,0.562,0.771,1.095,1.177,1.598c-0.7-0.812-1.378-1.696-2.016-2.646L206.209,25.45z
		 M204.321,9.928c-2.028,1.374-2.437,4.638-1.395,8.474c0.345-0.005,0.694,0.038,1.039,0.115c-0.191-2.135,0.309-3.855,1.557-4.7
		c0.215-0.145,0.444-0.26,0.688-0.345V9.286C205.511,9.344,204.874,9.554,204.321,9.928L204.321,9.928z M206.209,25.123v0.327
		c-0.844-1.274-1.553-2.569-2.124-3.842c0.204,0.037,0.407,0.092,0.605,0.158C205.064,22.858,205.573,23.992,206.209,25.123z"/>
	<path fill-rule="evenodd" clip-rule="evenodd" fill="#0095DA" d="M201.417,19.061c-1.344,0.911-1.646,3.04-1.012,5.562
		c0.175,0.042,0.349,0.089,0.522,0.138l0.239,0.07c-0.106-1.414,0.238-2.547,1.07-3.112c1.82-1.23,5.259,0.71,7.692,4.33
		c2.431,3.614,2.932,7.547,1.117,8.774c-0.33,0.223-0.713,0.341-1.133,0.365l0.037,0.275c0.847,0.138,1.609,0.021,2.223-0.394
		c2.217-1.503,1.604-6.302-1.366-10.721C207.838,19.928,203.636,17.558,201.417,19.061z"/>
	<g>
		<path d="M186.92,68.04v-0.7c0.285-0.005,0.563-0.058,0.833-0.158c0.286-0.106,0.53-0.246,0.729-0.422
			c0.2-0.173,0.418-0.457,0.651-0.848l0.645,0.34c-0.211,0.417-0.455,0.75-0.731,1.007c-0.278,0.255-0.59,0.449-0.936,0.582
			c-0.347,0.132-0.739,0.199-1.176,0.199H186.92L186.92,68.04z M186.92,64.972v-0.66h2.214c-0.103-0.409-0.251-0.735-0.445-0.979
			c-0.196-0.244-0.453-0.442-0.774-0.592c-0.316-0.146-0.646-0.221-0.994-0.224v-0.733c1,0.008,1.8,0.394,2.399,1.155
			c0.432,0.543,0.649,1.221,0.657,2.032H186.92L186.92,64.972z M198.692,62.589l-0.493,0.509c-0.408-0.397-0.808-0.597-1.197-0.597
			c-0.249,0-0.46,0.082-0.637,0.246c-0.178,0.164-0.265,0.356-0.265,0.575c0,0.192,0.072,0.377,0.218,0.552
			c0.146,0.178,0.452,0.389,0.918,0.63c0.569,0.294,0.956,0.578,1.159,0.853c0.201,0.276,0.303,0.588,0.303,0.935
			c0,0.487-0.172,0.901-0.516,1.241c-0.341,0.338-0.771,0.508-1.283,0.508c-0.344,0-0.671-0.074-0.982-0.224
			s-0.569-0.356-0.774-0.618l0.481-0.547c0.391,0.44,0.805,0.661,1.241,0.661c0.306,0,0.567-0.098,0.782-0.295
			c0.215-0.196,0.322-0.428,0.322-0.694c0-0.219-0.07-0.415-0.213-0.584c-0.144-0.168-0.463-0.381-0.963-0.635
			c-0.535-0.278-0.899-0.551-1.094-0.821c-0.192-0.269-0.289-0.576-0.289-0.924c0-0.451,0.153-0.827,0.461-1.125
			c0.309-0.299,0.698-0.45,1.168-0.45C197.587,61.784,198.137,62.053,198.692,62.589L198.692,62.589z M207.336,62.589l-0.492,0.509
			c-0.409-0.397-0.809-0.597-1.199-0.597c-0.248,0-0.459,0.082-0.636,0.246c-0.178,0.164-0.266,0.356-0.266,0.575
			c0,0.192,0.073,0.377,0.219,0.552c0.146,0.178,0.452,0.389,0.919,0.63c0.568,0.294,0.955,0.578,1.158,0.853
			c0.202,0.276,0.303,0.588,0.303,0.935c0,0.487-0.172,0.901-0.516,1.241c-0.342,0.338-0.771,0.508-1.284,0.508
			c-0.343,0-0.67-0.074-0.981-0.224s-0.569-0.356-0.774-0.618l0.481-0.547c0.39,0.44,0.805,0.661,1.241,0.661
			c0.307,0,0.567-0.098,0.782-0.295c0.214-0.196,0.323-0.428,0.323-0.694c0-0.219-0.071-0.415-0.213-0.584
			c-0.144-0.168-0.463-0.381-0.963-0.635c-0.536-0.278-0.9-0.551-1.094-0.821c-0.192-0.269-0.29-0.576-0.29-0.924
			c0-0.451,0.153-0.827,0.461-1.125c0.309-0.299,0.698-0.45,1.169-0.45C206.232,61.784,206.783,62.053,207.336,62.589z
			 M186.92,61.784v0.733h-0.018c-0.582,0-1.084,0.188-1.502,0.563c-0.307,0.272-0.538,0.684-0.695,1.23h2.215v0.66h-2.291
			c0.014,0.694,0.235,1.262,0.661,1.704c0.427,0.442,0.953,0.665,1.581,0.665l0.049-0.001v0.7c-0.963-0.003-1.715-0.32-2.26-0.953
			c-0.546-0.637-0.818-1.355-0.818-2.158c0-0.754,0.231-1.428,0.694-2.018c0.586-0.75,1.371-1.127,2.355-1.127H186.92L186.92,61.784
			z M168.806,68.04v-0.7c0.285-0.005,0.563-0.058,0.834-0.158c0.285-0.106,0.53-0.246,0.729-0.422
			c0.2-0.173,0.418-0.457,0.651-0.848l0.645,0.34c-0.211,0.417-0.456,0.75-0.731,1.007c-0.278,0.255-0.59,0.449-0.936,0.582
			c-0.347,0.132-0.739,0.199-1.176,0.199H168.806L168.806,68.04z M168.806,64.972v-0.66h2.215c-0.103-0.409-0.252-0.735-0.446-0.979
			c-0.195-0.244-0.453-0.442-0.774-0.592c-0.315-0.146-0.646-0.221-0.994-0.224v-0.733c1,0.008,1.801,0.394,2.399,1.155
			c0.432,0.543,0.65,1.221,0.657,2.032H168.806L168.806,64.972z M177.472,59.642h0.766v8.245h-0.766V59.642z M137.398,61.938h0.788
			l1.821,4.32l1.907-4.32h0.139l1.901,4.32l1.854-4.32h0.799l-2.581,5.949h-0.147l-1.893-4.259l-1.907,4.259h-0.143L137.398,61.938
			L137.398,61.938z M168.806,61.784v0.733h-0.018c-0.582,0-1.084,0.188-1.502,0.563c-0.306,0.272-0.538,0.684-0.694,1.23h2.214v0.66
			h-2.291c0.014,0.694,0.236,1.262,0.661,1.704c0.428,0.442,0.954,0.665,1.581,0.665l0.049-0.001v0.7
			c-0.962-0.003-1.715-0.32-2.259-0.953c-0.547-0.637-0.819-1.355-0.819-2.158c0-0.754,0.231-1.428,0.694-2.018
			c0.586-0.75,1.372-1.127,2.355-1.127H168.806L168.806,61.784z M152.075,59.488c0.174,0,0.323,0.062,0.448,0.187
			c0.123,0.123,0.185,0.272,0.185,0.448c0,0.172-0.062,0.319-0.185,0.442c-0.125,0.125-0.274,0.187-0.448,0.187
			c-0.172,0-0.318-0.062-0.444-0.187c-0.123-0.123-0.185-0.271-0.185-0.442c0-0.176,0.062-0.325,0.185-0.448
			C151.756,59.55,151.903,59.488,152.075,59.488L152.075,59.488z M151.692,61.938h0.771v5.949h-0.771V61.938L151.692,61.938z
			 M158.056,61.938h0.782v0.869c0.233-0.341,0.479-0.597,0.737-0.767c0.259-0.17,0.527-0.256,0.81-0.256
			c0.211,0,0.437,0.069,0.678,0.203l-0.4,0.646c-0.16-0.071-0.294-0.105-0.404-0.105c-0.254,0-0.5,0.105-0.737,0.314
			c-0.237,0.21-0.418,0.535-0.541,0.976c-0.096,0.34-0.142,1.024-0.142,2.057v2.012h-0.782V61.938z"/>
		<path fill="none" stroke="#939598" stroke-width="0.216" stroke-miterlimit="2.6131" d="M137.398,61.938h0.788l1.821,4.32
			l1.907-4.32h0.139l1.901,4.32l1.854-4.32h0.799l-2.581,5.949h-0.147l-1.893-4.259l-1.907,4.259h-0.143L137.398,61.938
			L137.398,61.938z M152.075,59.488c0.174,0,0.323,0.062,0.448,0.187c0.123,0.123,0.185,0.272,0.185,0.448
			c0,0.172-0.062,0.319-0.185,0.442c-0.125,0.125-0.274,0.187-0.448,0.187c-0.172,0-0.318-0.062-0.444-0.187
			c-0.123-0.123-0.185-0.271-0.185-0.442c0-0.176,0.062-0.325,0.185-0.448C151.756,59.55,151.903,59.488,152.075,59.488
			L152.075,59.488z M151.692,61.938h0.771v5.949h-0.771V61.938L151.692,61.938z M158.056,61.938h0.782v0.869
			c0.233-0.341,0.479-0.597,0.737-0.767c0.259-0.17,0.527-0.256,0.81-0.256c0.211,0,0.437,0.069,0.678,0.203l-0.4,0.646
			c-0.16-0.071-0.294-0.105-0.404-0.105c-0.254,0-0.5,0.105-0.737,0.314c-0.237,0.21-0.418,0.535-0.541,0.976
			c-0.096,0.34-0.142,1.024-0.142,2.057v2.012h-0.782V61.938L158.056,61.938z M171.021,65.912l0.645,0.34
			c-0.211,0.417-0.456,0.75-0.731,1.007c-0.278,0.255-0.59,0.449-0.936,0.582c-0.347,0.132-0.739,0.199-1.176,0.199
			c-0.971,0-1.729-0.317-2.275-0.953c-0.547-0.637-0.819-1.355-0.819-2.158c0-0.754,0.231-1.428,0.694-2.018
			c0.586-0.75,1.372-1.127,2.355-1.127c1.014,0,1.823,0.387,2.428,1.155c0.432,0.543,0.65,1.221,0.657,2.032h-5.348
			c0.014,0.694,0.236,1.262,0.661,1.704c0.428,0.442,0.954,0.665,1.581,0.665c0.302,0,0.597-0.053,0.883-0.159
			c0.285-0.106,0.53-0.246,0.729-0.422C170.57,66.587,170.788,66.303,171.021,65.912L171.021,65.912z M171.021,64.312
			c-0.103-0.409-0.252-0.735-0.446-0.979c-0.195-0.244-0.453-0.442-0.774-0.592c-0.321-0.148-0.656-0.224-1.012-0.224
			c-0.582,0-1.084,0.188-1.502,0.563c-0.306,0.272-0.538,0.684-0.694,1.23H171.021L171.021,64.312z M177.472,59.642h0.766v8.245
			h-0.766V59.642L177.472,59.642z M189.134,65.912l0.645,0.34c-0.211,0.417-0.455,0.75-0.731,1.007
			c-0.278,0.255-0.59,0.449-0.936,0.582c-0.347,0.132-0.739,0.199-1.176,0.199c-0.97,0-1.728-0.317-2.275-0.953
			c-0.546-0.637-0.818-1.355-0.818-2.158c0-0.754,0.231-1.428,0.694-2.018c0.586-0.75,1.371-1.127,2.355-1.127
			c1.013,0,1.823,0.387,2.428,1.155c0.432,0.543,0.649,1.221,0.657,2.032h-5.348c0.014,0.694,0.235,1.262,0.661,1.704
			c0.427,0.442,0.953,0.665,1.581,0.665c0.302,0,0.597-0.053,0.882-0.159c0.286-0.106,0.53-0.246,0.729-0.422
			C188.683,66.587,188.901,66.303,189.134,65.912L189.134,65.912z M189.134,64.312c-0.103-0.409-0.251-0.735-0.445-0.979
			c-0.196-0.244-0.453-0.442-0.774-0.592c-0.321-0.148-0.657-0.224-1.012-0.224c-0.582,0-1.084,0.188-1.502,0.563
			c-0.307,0.272-0.538,0.684-0.695,1.23H189.134L189.134,64.312z M198.692,62.589l-0.493,0.509
			c-0.408-0.397-0.808-0.597-1.197-0.597c-0.249,0-0.46,0.082-0.637,0.246c-0.178,0.164-0.265,0.356-0.265,0.575
			c0,0.192,0.072,0.377,0.218,0.552c0.146,0.178,0.452,0.389,0.918,0.63c0.569,0.294,0.956,0.578,1.159,0.853
			c0.201,0.276,0.303,0.588,0.303,0.935c0,0.487-0.172,0.901-0.516,1.241c-0.341,0.338-0.771,0.508-1.283,0.508
			c-0.344,0-0.671-0.074-0.982-0.224s-0.569-0.356-0.774-0.618l0.481-0.547c0.391,0.44,0.805,0.661,1.241,0.661
			c0.306,0,0.567-0.098,0.782-0.295c0.215-0.196,0.322-0.428,0.322-0.694c0-0.219-0.07-0.415-0.213-0.584
			c-0.144-0.168-0.463-0.381-0.963-0.635c-0.535-0.278-0.899-0.551-1.094-0.821c-0.192-0.269-0.289-0.576-0.289-0.924
			c0-0.451,0.153-0.827,0.461-1.125c0.309-0.299,0.698-0.45,1.168-0.45C197.587,61.784,198.137,62.053,198.692,62.589
			L198.692,62.589z M207.336,62.589l-0.492,0.509c-0.409-0.397-0.809-0.597-1.199-0.597c-0.248,0-0.459,0.082-0.636,0.246
			c-0.178,0.164-0.266,0.356-0.266,0.575c0,0.192,0.073,0.377,0.219,0.552c0.146,0.178,0.452,0.389,0.919,0.63
			c0.568,0.294,0.955,0.578,1.158,0.853c0.202,0.276,0.303,0.588,0.303,0.935c0,0.487-0.172,0.901-0.516,1.241
			c-0.342,0.338-0.771,0.508-1.284,0.508c-0.343,0-0.67-0.074-0.981-0.224s-0.569-0.356-0.774-0.618l0.481-0.547
			c0.39,0.44,0.805,0.661,1.241,0.661c0.307,0,0.567-0.098,0.782-0.295c0.214-0.196,0.323-0.428,0.323-0.694
			c0-0.219-0.071-0.415-0.213-0.584c-0.144-0.168-0.463-0.381-0.963-0.635c-0.536-0.278-0.9-0.551-1.094-0.821
			c-0.192-0.269-0.29-0.576-0.29-0.924c0-0.451,0.153-0.827,0.461-1.125c0.309-0.299,0.698-0.45,1.169-0.45
			C206.232,61.784,206.783,62.053,207.336,62.589z"/>
	</g>
	<path fill="#414042" d="M193.964,54.422v-5.111l0.094,0.001c1.691,0,3.232-0.407,4.632-1.223c1.391-0.806,2.498-1.957,3.331-3.445
		h5.783c-1.311,3.162-3.153,5.589-5.509,7.263c-2.365,1.675-5.111,2.516-8.237,2.516H193.964L193.964,54.422z M193.964,41.295
		v-4.614h9.119c-0.638-2.356-1.745-4.181-3.321-5.465c-1.577-1.293-3.454-1.94-5.651-1.94c-0.049,0-0.098,0-0.146,0.001v-5.005
		c2.503,0.002,4.827,0.587,6.984,1.754c2.152,1.169,3.924,2.799,5.332,4.889c0.824,1.302,1.444,2.719,1.843,4.269
		c0.398,1.551,0.594,3.321,0.594,5.306v0.806H193.964z M193.964,24.271v5.005c-2.188,0.028-4.088,0.692-5.708,1.983
		c-1.647,1.329-2.79,3.136-3.41,5.421h9.118v4.614h-9.277c0.434,2.383,1.515,4.322,3.233,5.802c1.695,1.46,3.71,2.195,6.044,2.214
		v5.111c-2.08-0.011-3.971-0.383-5.699-1.115c-1.745-0.744-3.321-1.861-4.747-3.349c-1.329-1.399-2.374-3.029-3.127-4.89
		c-0.674-1.665-1.043-3.358-1.112-5.087v-1.261c0.066-1.766,0.407-3.426,1.015-4.98c0.682-1.745,1.691-3.339,3.021-4.774
		c1.417-1.559,3.021-2.728,4.801-3.516c1.78-0.789,3.729-1.178,5.837-1.178H193.964L193.964,24.271z M179.279,29.79h0.012v-4.668
		h-0.012V29.79z M179.279,25.122v4.668h-4.036v23.879h-5.11V29.79h-4.048v-4.668h4.048v-9.238h5.11v9.238H179.279L179.279,25.122z
		 M179.279,38.721c-0.009,0.216-0.013,0.434-0.013,0.652c0,0.203,0.004,0.406,0.013,0.608V38.721L179.279,38.721z M149.891,54.315
		v-4.908c0.054,0.001,0.106,0.002,0.16,0.002c2.524,0,4.747-0.983,6.678-2.941c1.923-1.966,2.888-4.26,2.888-6.891
		c0-2.799-0.956-5.199-2.86-7.201c-1.914-1.993-4.181-2.994-6.812-2.994h-0.054v-4.981c1.797,0.046,3.456,0.389,4.979,1.031
		c1.647,0.691,3.145,1.745,4.49,3.145v-3.454h5.19v28.547h-5.19v-3.507c-1.311,1.363-2.781,2.4-4.394,3.1
		C153.377,53.948,151.686,54.302,149.891,54.315z M149.891,24.401v4.981c-2.678,0.013-4.963,0.96-6.855,2.852
		c-1.913,1.904-2.869,4.233-2.869,6.979c0,2.888,0.956,5.306,2.869,7.264c1.868,1.919,4.153,2.894,6.855,2.93v4.908h-0.105
		c-4.287,0-7.848-1.435-10.691-4.296c-2.834-2.86-4.251-6.448-4.251-10.753c0-2.011,0.354-3.914,1.063-5.712
		s1.719-3.384,3.038-4.748c1.435-1.506,3.003-2.613,4.703-3.331c1.71-0.717,3.649-1.081,5.828-1.081
		C149.615,24.396,149.753,24.397,149.891,24.401L149.891,24.401z M89.401,54.315v-4.908c0.053,0.001,0.106,0.002,0.16,0.002
		c2.524,0,4.748-0.983,6.678-2.941c1.922-1.966,2.888-4.26,2.888-6.891c0-2.799-0.957-5.199-2.861-7.201
		c-1.913-1.993-4.181-2.994-6.811-2.994h-0.053v-4.981c1.797,0.046,3.456,0.389,4.978,1.031c1.647,0.691,3.145,1.745,4.491,3.145
		v-3.454h5.19v28.547h-5.19v-3.507c-1.311,1.363-2.781,2.4-4.394,3.1C92.887,53.948,91.195,54.302,89.401,54.315L89.401,54.315z
		 M113.043,53.669h-5.137V25.122h4.934v3.25c1.072-1.284,2.25-2.223,3.543-2.817c1.284-0.593,2.764-0.895,4.42-0.895
		c3.738,0,6.607,1.099,8.609,3.295c1.992,2.197,2.993,5.35,2.993,9.451v16.262h-5.163V38.523c0-3.029-0.559-5.279-1.684-6.741
		c-1.124-1.461-2.869-2.188-5.226-2.188c-2.56,0-4.411,0.859-5.562,2.578c-1.152,1.727-1.728,4.562-1.728,8.53V53.669z
		 M23.817,36.681c-0.638-2.356-1.745-4.181-3.321-5.465c-1.577-1.293-3.455-1.94-5.651-1.94c-0.049,0-0.098,0-0.146,0.001v-5.005
		c2.502,0.002,4.827,0.587,6.984,1.754c2.152,1.169,3.924,2.799,5.332,4.889c0.824,1.302,1.444,2.719,1.843,4.269
		c0.398,1.551,0.593,3.321,0.593,5.306v0.806H14.699v-4.614H23.817L23.817,36.681z M89.401,24.401v4.981
		c-2.678,0.013-4.964,0.96-6.855,2.852c-1.913,1.904-2.87,4.233-2.87,6.979c0,2.888,0.957,5.306,2.87,7.264
		c1.868,1.919,4.153,2.894,6.855,2.93v4.908h-0.106c-4.287,0-7.848-1.435-10.691-4.296c-2.834-2.86-4.251-6.448-4.251-10.753
		c0-2.011,0.354-3.914,1.063-5.712s1.718-3.384,3.038-4.748c1.435-1.506,3.003-2.613,4.703-3.331
		c1.71-0.717,3.649-1.081,5.828-1.081C89.125,24.396,89.263,24.397,89.401,24.401L89.401,24.401z M14.699,54.422v-5.111l0.093,0.001
		c1.692,0,3.233-0.407,4.633-1.223c1.391-0.806,2.498-1.957,3.33-3.445h5.784c-1.311,3.162-3.153,5.589-5.51,7.263
		c-2.365,1.675-5.11,2.516-8.237,2.516H14.699L14.699,54.422z M49.329,39.267c0-3.48-0.487-6.005-1.47-7.573
		c-0.983-1.577-2.542-2.365-4.677-2.365c-2.205,0-3.835,0.788-4.88,2.374c-1.054,1.585-1.577,4.039-1.577,7.36v14.605h-4.88V25.122
		h4.57v3.348c0.947-1.275,2.02-2.232,3.215-2.861c1.205-0.629,2.569-0.948,4.101-0.948c2.073,0,3.791,0.398,5.173,1.196
		c1.382,0.789,2.507,2.037,3.383,3.729c0.886-1.656,2.055-2.896,3.517-3.702c1.453-0.815,3.233-1.223,5.332-1.223
		c3.224,0,5.811,1.054,7.75,3.153c1.939,2.099,2.914,4.907,2.914,8.414v17.44h-5.164V37.035c0-2.436-0.532-4.331-1.603-5.678
		c-1.063-1.355-2.56-2.028-4.464-2.028c-2.223,0-3.826,0.717-4.792,2.152c-0.974,1.435-1.461,3.861-1.461,7.263v14.925h-4.986
		V39.267z M14.699,29.277c-2.188,0.028-4.088,0.692-5.708,1.983c-1.647,1.329-2.791,3.136-3.41,5.421h9.119v4.614H5.42
		c0.434,2.383,1.515,4.322,3.233,5.802c1.696,1.46,3.711,2.195,6.045,2.214v5.111c-2.08-0.011-3.972-0.383-5.7-1.115
		c-1.745-0.744-3.322-1.861-4.748-3.349c-1.329-1.399-2.374-3.029-3.127-4.89C0.372,43.209,0,41.313,0,39.373
		c0-2.011,0.345-3.888,1.027-5.633c0.682-1.745,1.692-3.339,3.021-4.774c1.417-1.559,3.02-2.728,4.8-3.516
		c1.781-0.789,3.729-1.178,5.837-1.178h0.013V29.277z"/>
</g>
</svg>
